<?xml version="1.0" standalone="no"?>
<!DOCTYPE svg PUBLIC "-//W3C//DTD SVG 20010904//EN"
 "http://www.w3.org/TR/2001/REC-SVG-20010904/DTD/svg10.dtd">
<svg version="1.0" xmlns="http://www.w3.org/2000/svg"
 width="500.000000pt" height="500.000000pt" viewBox="0 0 500.000000 500.000000"
 preserveAspectRatio="xMidYMid meet">

<g transform="translate(0.000000,500.000000) scale(0.100000,-0.100000)"
fill="#000000" stroke="none">
<path d="M1884 4125 c-9 -13 -21 -43 -28 -66 l-13 -42 -27 47 c-33 56 -67 69
-99 37 -23 -22 -28 -86 -13 -167 l8 -39 -55 52 c-64 61 -99 74 -127 48 -25
-23 -25 -61 0 -132 11 -32 20 -58 20 -59 0 0 -23 10 -51 24 -64 32 -165 37
-183 9 -9 -14 -6 -26 11 -57 l21 -40 -21 0 c-12 0 -39 -5 -59 -11 -30 -8 -38
-15 -38 -33 0 -33 17 -51 95 -96 l70 -40 -40 -1 c-85 -1 -144 -39 -114 -75 24
-29 129 -73 192 -80 l59 -7 -75 -39 c-137 -72 -191 -139 -136 -169 20 -10 39
-9 124 7 l30 6 -26 -28 c-51 -55 -78 -142 -46 -145 54 -5 98 14 172 75 l50 41
-34 -45 c-66 -90 -82 -117 -75 -133 9 -24 42 -21 90 7 l41 23 -5 -65 c-4 -55
-2 -67 13 -79 26 -18 29 -17 71 20 22 18 51 60 69 100 l31 67 -4 -90 c-5 -99
7 -145 40 -156 31 -9 56 22 81 103 l24 73 16 -59 c27 -96 102 -142 135 -81 9
18 12 54 9 122 l-4 97 39 -49 c73 -92 178 -139 186 -83 2 12 -11 49 -28 83
-17 34 -29 64 -27 67 3 2 20 -5 38 -17 81 -49 149 -46 149 7 0 14 3 23 8 19 4
-4 9 -134 12 -289 l5 -282 39 -3 38 -3 -5 248 c-4 203 -9 266 -26 346 l-22 99
26 20 c39 30 29 58 -32 93 -43 25 -93 80 -81 89 1 2 27 11 57 20 105 34 130
74 65 106 l-30 16 48 43 c58 51 61 80 11 94 -29 9 -30 12 -21 33 14 31 -11 70
-50 78 -36 9 -148 -18 -235 -55 l-68 -29 21 28 c11 15 35 45 52 67 47 62 90
159 86 197 -3 29 -7 33 -36 36 -42 4 -89 -25 -141 -87 -61 -73 -49 -71 22 2
61 63 101 85 132 73 24 -9 18 -46 -19 -121 -44 -92 -128 -191 -218 -258 -106
-80 -113 -64 -37 88 34 66 65 125 71 132 5 7 7 16 4 21 -3 5 1 33 9 63 22 80
20 154 -5 179 -11 11 -26 20 -34 20 -23 0 -72 -47 -87 -82 l-14 -33 -7 48 c-3
27 -12 55 -18 63 -19 22 -58 17 -76 -11z m65 1 c21 -26 18 -135 -7 -221 -13
-44 -26 -112 -29 -152 -6 -75 -23 -91 -23 -22 0 44 -27 237 -36 250 -3 5 1 27
7 49 9 29 15 37 21 28 6 -8 7 -5 3 10 -8 26 18 72 39 72 7 0 19 -6 25 -14z
m163 -13 c42 -38 7 -200 -83 -380 -54 -109 -64 -123 -87 -123 l-25 0 6 93 c12
173 84 388 140 415 29 14 28 14 49 -5z m-318 -35 c13 -18 31 -55 40 -83 18
-57 46 -261 46 -336 0 -46 -2 -49 -25 -49 -74 0 -185 419 -128 482 23 26 39
23 67 -14z m-142 -145 c48 -48 61 -70 79 -128 12 -38 36 -100 55 -137 30 -59
32 -68 18 -76 -13 -7 -41 16 -130 106 -109 110 -146 165 -128 193 4 8 3 9 -4
5 -17 -10 -27 61 -12 79 25 31 63 18 122 -42z m-147 -123 c97 -47 282 -227
258 -251 -22 -22 -303 87 -288 111 2 4 -5 16 -18 26 -18 16 -19 16 -8 2 10
-13 10 -18 1 -18 -20 0 -130 117 -130 138 0 41 94 37 185 -8z m1003 -52 c23
-19 13 -56 -21 -82 -62 -47 -223 -107 -355 -132 -80 -15 -84 -15 -98 3 -7 10
-14 20 -14 23 -1 20 188 136 270 165 110 40 186 48 218 23z m-1092 -72 c77
-57 187 -112 267 -133 50 -13 63 -20 60 -33 -4 -15 -15 -15 -126 7 -67 13
-129 28 -138 33 -9 5 -27 6 -39 3 -16 -4 -21 -3 -16 5 4 7 2 10 -6 7 -7 -3
-48 15 -90 40 -99 58 -115 97 -43 108 63 9 73 6 131 -37z m1161 -43 c4 -12
-21 -39 -72 -78 -26 -19 -47 -24 -150 -30 -66 -4 -158 -13 -205 -20 -47 -8
-88 -11 -92 -7 -4 4 29 13 73 20 91 15 223 59 318 107 65 32 119 36 128 8z
m-591 -70 c33 -21 54 -64 54 -108 0 -43 -17 -78 -32 -69 -6 4 -8 3 -5 -3 11
-17 -39 -54 -81 -60 -111 -15 -196 80 -162 182 6 20 23 43 36 52 54 35 142 38
190 6z m-411 -53 c83 -17 151 -30 153 -30 1 0 2 -11 2 -24 0 -21 -7 -25 -59
-35 -157 -31 -265 -23 -368 25 -56 27 -70 46 -47 65 43 36 134 35 319 -1z
m950 -12 c37 -17 27 -39 -30 -68 -44 -22 -62 -25 -155 -24 -90 1 -265 25 -278
39 -10 9 8 35 25 36 10 0 61 6 113 13 122 18 291 20 325 4z m-781 -94 c4 -9 5
-18 4 -19 -2 -1 -57 -32 -123 -70 -66 -37 -131 -75 -145 -85 -51 -35 -193 -54
-203 -27 -13 37 34 78 167 143 58 29 104 44 130 45 23 0 64 7 91 14 68 17 72
17 79 -1z m456 -9 c204 -75 257 -97 291 -119 21 -15 39 -30 39 -34 -1 -43 -92
-54 -186 -22 -87 29 -294 158 -294 184 0 17 5 18 58 11 31 -4 73 -13 92 -20z
m-430 -38 c0 -21 -271 -283 -317 -306 -53 -26 -93 -28 -93 -3 0 35 60 121 107
154 68 47 276 166 291 167 6 1 12 -5 12 -12z m378 -50 c181 -113 287 -212 280
-261 -4 -31 -56 -33 -115 -3 -47 24 -138 113 -250 243 -40 47 -49 64 -40 73
15 15 25 11 125 -52z m-401 -38 c-25 -35 -60 -93 -78 -129 -18 -36 -40 -71
-48 -78 -11 -9 -11 -11 -2 -6 11 5 13 3 8 -10 -4 -10 -7 -22 -7 -26 0 -10 -74
-55 -107 -65 -34 -10 -30 25 6 64 16 17 26 31 23 31 -4 0 1 5 11 11 9 5 17 15
17 21 0 27 205 266 217 254 2 -2 -16 -32 -40 -67z m92 13 c-6 -15 -26 -85 -45
-157 -51 -188 -114 -292 -167 -272 -54 21 27 265 138 416 40 54 48 60 65 51
16 -9 18 -15 9 -38z m269 -70 c74 -83 112 -136 147 -206 62 -121 52 -143 -38
-86 -65 41 -129 128 -198 271 -45 93 -57 124 -47 131 7 4 18 7 25 5 6 -1 56
-53 111 -115z m-111 -10 c69 -143 77 -171 78 -279 0 -72 -4 -96 -16 -108 -15
-15 -19 -15 -46 -2 -49 26 -62 73 -82 287 -17 185 -16 211 9 209 3 0 28 -48
57 -107z m-87 -46 c13 -154 9 -191 -32 -303 -26 -71 -55 -79 -77 -19 -33 86
31 466 79 466 15 0 19 -17 30 -144z m467 38 c17 -5 31 -20 44 -51 27 -63 24
-72 -10 -26 -16 22 -44 52 -62 68 -19 15 -26 24 -16 21 11 -3 30 -9 44 -12z"/>
<path d="M1841 3734 c0 -11 3 -14 6 -6 3 7 2 16 -1 19 -3 4 -6 -2 -5 -13z"/>
<path d="M1308 3673 c6 -2 18 -2 25 0 6 3 1 5 -13 5 -14 0 -19 -2 -12 -5z"/>
<path d="M1360 3616 c0 -2 8 -10 18 -17 15 -13 16 -12 3 4 -13 16 -21 21 -21
13z"/>
<path d="M1945 3570 c-3 -5 -1 -10 4 -10 6 0 11 5 11 10 0 6 -2 10 -4 10 -3 0
-8 -4 -11 -10z"/>
<path d="M1910 3480 c0 -5 5 -10 10 -10 6 0 10 5 10 10 0 6 -4 10 -10 10 -5 0
-10 -4 -10 -10z"/>
<path d="M1840 3424 c0 -8 5 -12 10 -9 6 4 8 11 5 16 -9 14 -15 11 -15 -7z"/>
<path d="M1880 3370 c0 -5 5 -10 10 -10 6 0 10 5 10 10 0 6 -4 10 -10 10 -5 0
-10 -4 -10 -10z"/>
<path d="M1448 3493 c12 -2 32 -2 45 0 12 2 2 4 -23 4 -25 0 -35 -2 -22 -4z"/>
<path d="M2323 3483 c9 -2 25 -2 35 0 9 3 1 5 -18 5 -19 0 -27 -2 -17 -5z"/>
<path d="M2210 3236 c0 -2 8 -10 18 -17 15 -13 16 -12 3 4 -13 16 -21 21 -21
13z"/>
<path d="M2120 3066 c0 -2 8 -10 18 -17 15 -13 16 -12 3 4 -13 16 -21 21 -21
13z"/>
<path d="M2139 3863 c-13 -16 -12 -17 4 -4 9 7 17 15 17 17 0 8 -8 3 -21 -13z"/>
<path d="M2256 2599 c-2 -8 -7 -170 -9 -360 -5 -376 -8 -393 -62 -417 -64 -29
-124 1 -168 82 -21 40 -22 53 -25 369 l-3 328 -30 -3 -30 -3 -3 -265 c-4 -410
6 -481 83 -563 39 -43 74 -57 141 -57 71 0 112 15 164 60 87 77 98 141 89 533
l-6 297 -53 0 c-29 0 -59 3 -68 6 -9 3 -18 0 -20 -7z"/>
<path d="M2576 2600 c-2 -3 -5 -203 -7 -445 l-4 -440 85 0 85 0 1 183 c1 101
3 185 6 187 2 2 51 7 108 10 135 9 189 26 233 74 48 53 60 98 55 195 -7 120
-46 185 -133 222 -33 14 -75 18 -233 18 -107 1 -195 -1 -196 -4z m369 -120
c51 -25 76 -66 82 -138 9 -119 -60 -165 -221 -147 l-66 7 0 86 c0 48 3 118 7
156 l6 69 75 -7 c43 -3 94 -15 117 -26z"/>
<path d="M2142 1459 c5 -87 18 -109 63 -109 41 0 55 30 55 113 0 45 -4 77 -10
77 -6 0 -10 -29 -10 -68 0 -74 -15 -106 -46 -100 -17 3 -19 13 -22 86 -2 67
-6 82 -19 82 -13 0 -15 -12 -11 -81z"/>
<path d="M2290 1530 c0 -5 9 -10 20 -10 18 0 20 -7 20 -85 0 -69 3 -85 15 -85
12 0 15 16 15 85 0 84 0 85 25 85 14 0 25 5 25 10 0 6 -27 10 -60 10 -33 0
-60 -4 -60 -10z"/>
<path d="M2430 1530 c0 -5 9 -10 20 -10 18 0 20 -7 20 -85 0 -69 3 -85 15 -85
12 0 15 16 15 85 0 84 0 85 25 85 14 0 25 5 25 10 0 6 -27 10 -60 10 -33 0
-60 -4 -60 -10z"/>
<path d="M2617 1533 c-6 -11 -47 -161 -47 -173 0 -18 18 -10 23 10 4 15 14 20
37 20 23 0 33 -5 37 -20 3 -11 11 -20 18 -20 8 0 5 27 -14 95 -23 84 -40 112
-54 88z m33 -126 c-5 -5 -16 -7 -26 -5 -21 4 -21 30 -2 77 11 25 11 25 23 -19
7 -25 9 -49 5 -53z"/>
<path d="M2720 1445 c0 -78 3 -95 15 -95 12 0 15 15 15 73 1 69 1 71 16 45 8
-16 18 -28 23 -28 4 0 14 12 22 28 13 26 14 24 17 -45 4 -108 22 -89 22 22 0
52 -4 95 -9 95 -5 0 -20 -14 -32 -31 l-22 -31 -19 31 c-36 57 -48 41 -48 -64z"/>
<path d="M1870 1145 c0 -57 4 -95 10 -95 6 0 10 18 10 40 0 35 3 40 23 40 31
0 67 27 67 51 0 43 -18 59 -65 59 l-45 0 0 -95z m81 59 c18 -21 0 -48 -35 -52
-24 -3 -26 0 -26 32 0 31 3 36 24 36 13 0 29 -7 37 -16z"/>
<path d="M2040 1198 c-6 -24 -18 -65 -26 -92 -8 -27 -12 -51 -10 -54 8 -7 26
9 26 24 0 9 11 14 35 14 24 0 35 -5 35 -14 0 -15 18 -31 26 -24 3 4 -19 93
-42 171 -10 31 -33 18 -44 -25z m45 -60 c7 -36 6 -38 -19 -38 -29 0 -31 7 -14
62 13 43 22 37 33 -24z"/>
<path d="M2150 1230 c0 -5 9 -10 20 -10 18 0 20 -7 20 -85 0 -69 3 -85 15 -85
12 0 15 16 15 85 0 84 0 85 25 85 14 0 25 5 25 10 0 6 -27 10 -60 10 -33 0
-60 -4 -60 -10z"/>
<path d="M2300 1145 c0 -95 16 -133 22 -52 3 39 5 42 33 42 28 0 30 -3 33 -42
6 -81 22 -43 22 52 0 57 -4 95 -10 95 -5 0 -10 -18 -10 -40 0 -39 -1 -40 -35
-40 -34 0 -35 1 -35 40 0 22 -4 40 -10 40 -6 0 -10 -38 -10 -95z"/>
<path d="M2462 1228 c-20 -20 -14 -56 14 -75 54 -37 66 -53 53 -69 -17 -21
-50 -17 -56 6 -7 25 -23 26 -23 2 0 -41 63 -58 95 -26 25 25 14 55 -30 85 -44
30 -53 62 -18 67 14 2 26 -4 33 -18 10 -19 30 -20 30 0 0 33 -73 53 -98 28z"/>
<path d="M2590 1145 c0 -95 16 -133 22 -52 3 39 5 42 36 45 32 3 32 3 32 -42
0 -25 5 -46 10 -46 6 0 10 38 10 95 0 57 -4 95 -10 95 -5 0 -10 -18 -10 -40 0
-39 -1 -40 -35 -40 -34 0 -35 1 -35 40 0 22 -4 40 -10 40 -6 0 -10 -38 -10
-95z"/>
<path d="M2780 1233 c0 -4 -11 -47 -24 -96 -18 -65 -21 -87 -11 -87 7 0 15 9
18 20 4 14 14 20 35 20 22 0 32 -6 37 -20 10 -32 27 -24 20 10 -21 95 -43 155
-58 158 -10 2 -17 0 -17 -5z m36 -90 c6 -39 5 -43 -14 -43 -29 0 -32 9 -19 58
13 49 23 44 33 -15z"/>
<path d="M2890 1145 l0 -95 55 0 c65 0 74 17 13 22 l-43 3 -3 83 c-4 114 -22
104 -22 -13z"/>
<path d="M3060 1233 c0 -4 -11 -47 -24 -96 -18 -65 -21 -87 -11 -87 7 0 15 9
18 20 4 14 14 20 35 20 22 0 32 -6 37 -20 10 -32 27 -24 20 10 -21 95 -43 155
-58 158 -10 2 -17 0 -17 -5z m36 -90 c6 -39 5 -43 -14 -43 -29 0 -32 9 -19 58
13 49 23 44 33 -15z"/>
</g>
</svg>
